<?xml version="1.0" standalone="no"?>
<!DOCTYPE svg PUBLIC "-//W3C//DTD SVG 20010904//EN"
 "http://www.w3.org/TR/2001/REC-SVG-20010904/DTD/svg10.dtd">
<svg version="1.0" xmlns="http://www.w3.org/2000/svg"
 width="1100.000000pt" height="1100.000000pt" viewBox="0 0 1100.000000 1100.000000"
 preserveAspectRatio="xMidYMid meet">
<metadata>
Created by potrace 1.14, written by Peter Selinger 2001-2017
</metadata>
<g transform="translate(0.000000,1100.000000) scale(0.100000,-0.100000)"
fill="#000000" stroke="none">
<path d="M5235 10723 c-445 -23 -926 -116 -1380 -267 -1741 -581 -3064 -2058
-3450 -3850 -80 -372 -105 -604 -112 -1011 -8 -451 17 -740 97 -1135 93 -462
227 -852 440 -1285 264 -536 561 -948 994 -1380 283 -282 501 -461 816 -670
705 -468 1496 -749 2365 -842 211 -22 790 -25 985 -5 516 54 952 155 1395 322
906 344 1720 953 2309 1730 543 716 894 1556 1015 2430 39 286 46 390 46 735
0 345 -7 450 -46 735 -88 635 -311 1285 -637 1860 -86 153 -290 459 -397 595
-364 466 -770 846 -1240 1159 -780 520 -1643 813 -2583 876 -140 9 -467 11
-617 3z m1517 -354 c493 -123 992 -336 1436 -612 62 -39 111 -71 110 -73 -2
-1 -54 11 -116 26 -236 60 -485 89 -820 97 -179 4 -251 2 -360 -12 l-137 -18
-369 -199 c-453 -245 -775 -411 -853 -442 -85 -33 -407 -255 -532 -367 -480
-430 -896 -639 -1369 -690 l-113 -12 7 -156 c4 -86 7 -157 9 -158 2 -4 245 36
270 44 11 3 -26 -28 -81 -70 -247 -186 -436 -384 -647 -677 l-18 -25 6 28 c22
109 38 275 45 477 l7 235 81 351 c78 339 84 360 175 590 100 253 180 440 229
539 35 69 110 155 338 390 91 93 190 198 219 233 30 35 99 101 155 147 229
191 505 314 811 360 129 19 381 19 510 0 281 -42 555 -151 791 -313 l99 -68
197 40 c109 23 198 44 198 47 0 16 -273 213 -407 294 -32 19 -53 35 -46 35 6
0 85 -18 175 -41z m-2313 27 c-2 -2 -61 -42 -131 -89 -70 -47 -170 -120 -223
-163 -53 -44 -131 -105 -173 -138 -188 -143 -295 -258 -432 -465 -59 -89 -59
-90 -185 -517 -70 -236 -156 -521 -192 -634 -36 -113 -88 -286 -115 -385 -54
-199 -66 -306 -87 -760 -6 -125 -17 -252 -27 -295 -56 -259 -188 -531 -395
-811 -27 -37 -49 -69 -49 -73 0 -3 45 -64 99 -136 l99 -129 62 95 c35 52 64
93 66 92 1 -2 -4 -44 -12 -93 -8 -50 -17 -194 -21 -321 -6 -241 3 -380 36
-566 10 -54 17 -98 15 -98 -1 0 -25 35 -55 77 -69 101 -192 254 -292 365 -44
49 -126 162 -184 250 -57 88 -125 184 -151 214 -81 91 -382 638 -462 839 -64
160 -69 196 -91 655 -12 246 -18 476 -15 547 15 330 142 655 366 938 74 94
265 273 370 347 226 160 503 270 775 308 l81 12 72 113 c39 63 88 139 108 170
l36 56 -44 -5 c-209 -28 -429 -70 -497 -93 -39 -14 15 23 165 113 291 174 653
340 979 449 198 66 527 152 504 131z m3674 -955 c157 -32 275 -73 422 -146
501 -250 858 -738 950 -1299 8 -49 17 -91 19 -94 9 -8 330 -101 335 -96 7 7
-18 147 -49 269 -15 61 -26 111 -25 113 2 2 32 -45 68 -105 270 -448 467 -932
587 -1443 10 -41 13 -67 6 -56 -66 108 -174 266 -223 326 -103 128 -474 476
-608 571 -66 47 -125 88 -130 92 -6 3 -191 60 -410 127 -220 67 -508 157 -641
201 l-241 79 -354 54 c-195 30 -406 57 -469 61 -493 27 -909 189 -1265 489
-49 42 -92 75 -95 74 -3 -2 -67 -39 -142 -82 l-136 -79 66 -55 c37 -31 111
-88 165 -129 54 -40 92 -73 85 -73 -7 0 -53 7 -103 15 -252 42 -590 40 -860
-4 -98 -16 -107 -16 -85 -2 56 37 259 192 305 233 28 24 164 123 304 219 140
96 288 205 329 242 80 73 112 92 214 130 34 14 157 66 272 117 316 139 395
169 586 218 214 54 291 61 710 57 269 -2 318 -5 413 -24z m-6858 -1366 c-32
-133 -66 -369 -66 -458 0 -40 22 -263 49 -497 l49 -425 295 -577 295 -577 158
-197 c86 -108 186 -228 223 -268 185 -201 331 -413 443 -641 119 -244 186
-471 220 -747 l11 -98 159 0 159 0 0 28 c0 26 -33 223 -47 282 -4 15 19 -9 57
-60 240 -323 561 -606 897 -790 45 -24 81 -46 79 -48 -4 -3 -186 46 -328 89
-114 35 -71 29 -573 79 l-400 41 -280 106 c-507 191 -811 317 -907 376 -20 12
-112 68 -205 125 l-169 102 -120 137 c-65 75 -167 188 -226 250 -204 216 -316
428 -382 724 -119 534 -2 1122 303 1528 31 41 62 81 68 90 11 14 3 46 -46 185
l-58 168 -60 -73 c-67 -82 -140 -184 -197 -274 -37 -59 -38 -59 -32 -23 11 62
85 324 128 453 69 208 146 393 258 620 97 198 256 482 265 473 2 -1 -7 -48
-20 -103z m4595 -21 c854 -111 1598 -647 1981 -1429 118 -242 189 -467 236
-750 28 -172 26 -613 -5 -789 -95 -545 -326 -1004 -702 -1390 -411 -422 -913
-676 -1505 -762 -166 -24 -524 -24 -690 0 -861 125 -1583 640 -1965 1404 -187
373 -270 730 -270 1157 0 432 83 783 276 1165 134 265 292 479 511 690 435
421 982 669 1588 719 138 12 395 5 545 -15z m1435 -275 c66 -6 143 -17 170
-25 28 -7 226 -33 440 -59 471 -55 477 -56 573 -99 43 -19 187 -78 322 -131
349 -138 482 -205 605 -307 55 -46 181 -146 280 -223 268 -208 393 -336 503
-517 231 -378 309 -876 210 -1338 -46 -220 -146 -464 -257 -631 l-50 -75 21
-195 c12 -107 24 -198 28 -202 10 -11 109 114 209 263 98 147 98 148 16 -138
-88 -308 -198 -588 -345 -877 -87 -170 -218 -400 -225 -393 -3 2 2 28 10 58
26 101 57 304 57 370 0 36 -14 251 -31 478 l-32 414 -333 666 c-370 740 -360
723 -579 952 -173 181 -275 306 -388 473 -207 311 -334 645 -375 991 -9 72
-18 146 -20 164 l-5 32 -154 0 -155 0 0 -29 c0 -30 46 -310 56 -346 4 -11 -13
7 -37 40 -180 250 -381 457 -622 639 -90 68 -91 69 -52 63 22 -4 94 -12 160
-18z m1160 -2005 c22 -27 100 -105 174 -174 74 -69 176 -175 227 -236 l93
-112 172 -388 c139 -316 267 -618 350 -825 6 -15 27 -106 48 -202 l37 -175
-13 -114 c-7 -62 -17 -205 -23 -317 -11 -229 -21 -303 -57 -446 -96 -387 -338
-737 -674 -978 -185 -132 -457 -250 -685 -296 -53 -11 -97 -21 -98 -23 -5 -9
-96 -295 -96 -301 0 -14 78 -3 255 38 26 6 23 2 -20 -26 -239 -154 -661 -352
-1000 -467 -110 -38 -437 -132 -458 -132 -4 0 31 27 80 59 116 78 236 176 494
404 206 183 214 191 281 299 68 110 70 114 189 502 66 215 158 506 204 646
l83 255 61 370 c33 204 63 415 66 470 31 511 197 939 514 1333 46 57 80 107
75 111 -23 21 -233 181 -238 181 -8 0 -127 -156 -191 -250 -32 -47 -55 -74
-52 -60 70 284 75 785 11 1095 -5 22 15 0 72 -81 44 -60 97 -132 119 -160z
m-7573 -1779 c45 -56 151 -180 235 -277 151 -175 152 -175 280 -254 123 -75
136 -81 343 -142 118 -35 321 -95 450 -133 129 -38 339 -103 465 -144 l230
-74 415 -55 c228 -30 475 -62 548 -71 453 -55 860 -245 1187 -557 40 -37 76
-68 80 -68 4 0 60 48 125 108 l119 107 -32 28 c-80 72 -230 189 -307 240 -47
31 -82 57 -78 57 3 0 57 -9 120 -19 336 -58 699 -49 1042 23 61 13 112 23 113
22 2 -1 -48 -37 -111 -80 -216 -147 -455 -350 -616 -522 l-85 -92 -195 -85
c-107 -48 -311 -138 -452 -201 -142 -64 -343 -149 -447 -191 -178 -70 -202
-77 -368 -105 -316 -52 -819 -51 -1059 1 -657 142 -1189 721 -1325 1441 l-21
115 -176 106 c-97 59 -177 106 -178 104 -6 -6 20 -200 40 -298 12 -60 21 -109
20 -109 -7 0 -144 249 -213 389 -147 293 -277 632 -351 916 -17 66 -34 129
-37 140 -3 11 30 -34 75 -100 44 -66 118 -165 164 -220z m6989 -101 c-30 -160
-39 -249 -46 -449 -10 -262 -66 -553 -186 -965 -132 -454 -233 -709 -328 -825
-23 -27 -81 -102 -131 -166 -50 -64 -135 -157 -192 -210 -57 -52 -159 -148
-229 -214 -194 -186 -381 -310 -595 -394 -304 -120 -634 -148 -963 -80 -224
46 -484 156 -687 292 -55 37 -109 67 -120 67 -34 1 -404 -63 -404 -69 1 -9
172 -140 276 -212 104 -71 103 -71 -131 -4 -274 80 -505 168 -772 295 -143 69
-433 226 -433 234 0 2 30 -3 68 -11 145 -30 280 -43 536 -49 218 -5 301 -3
449 11 l182 18 405 217 c223 120 504 268 625 331 121 62 312 171 424 242 165
104 227 149 325 240 196 180 333 286 506 391 282 171 586 271 907 299 77 6
133 16 133 22 1 5 7 78 14 160 8 83 12 151 11 153 -10 11 -415 -54 -473 -75
-9 -4 37 33 103 82 282 206 526 457 693 712 26 39 48 70 50 68 2 -1 -6 -52
-17 -111z"/>
<path d="M4302 9503 l-110 -127 192 -77 c105 -42 293 -122 419 -178 125 -55
231 -101 235 -101 4 0 51 42 106 93 l98 92 -143 74 c-79 41 -261 136 -405 212
-143 77 -266 139 -272 139 -5 0 -60 -57 -120 -127z"/>
<path d="M2480 7854 c-91 -29 -279 -88 -418 -131 l-253 -77 5 -36 c3 -19 8
-86 12 -147 3 -62 8 -113 9 -113 2 0 39 15 83 34 113 49 310 111 506 161 94
23 174 49 178 56 6 11 68 289 68 304 0 10 -28 2 -190 -51z"/>
<path d="M7463 9227 l-162 -9 28 -42 c82 -121 151 -274 285 -640 53 -143 100
-262 106 -266 14 -8 231 -43 236 -37 3 2 -21 89 -51 193 -47 159 -177 625
-215 772 -9 37 -14 42 -38 40 -15 0 -100 -6 -189 -11z"/>
<path d="M1673 4998 c-40 -79 -115 -225 -167 -325 l-94 -183 125 -95 126 -95
62 142 c34 79 99 222 144 317 l82 175 -103 103 -103 103 -72 -142z"/>
<path d="M4784 7448 c-10 -8 -57 -55 -132 -130 -58 -59 -103 -98 -112 -98 -6
0 -51 -39 -100 -87 -49 -49 -104 -102 -122 -120 -18 -17 -44 -45 -58 -62 -14
-17 -33 -33 -42 -36 -17 -6 -18 -52 -18 -770 0 -718 1 -764 18 -770 9 -3 28
-19 42 -36 28 -34 31 -37 225 -224 74 -71 145 -140 157 -152 13 -12 39 -40 58
-62 l35 -40 113 -1 c106 0 112 -1 112 -21 0 -34 24 -49 79 -49 28 0 51 -4 51
-10 0 -5 -7 -10 -15 -10 -8 0 -15 -4 -15 -10 0 -5 -9 -10 -20 -10 -11 0 -20
-5 -20 -11 0 -6 -6 -17 -14 -25 -12 -12 -81 -14 -410 -14 l-396 0 0 -385 0
-385 49 -50 c27 -27 54 -50 60 -50 9 0 68 -53 152 -136 6 -7 35 -36 65 -65 82
-82 137 -136 160 -160 12 -12 42 -41 68 -65 l45 -44 804 0 803 0 14 21 c8 12
25 31 38 43 12 12 67 65 122 119 55 53 105 97 110 97 10 0 48 33 113 98 79 80
95 95 145 141 l52 50 0 721 0 721 -72 70 c-40 38 -76 73 -80 77 -7 7 -79 78
-170 169 -29 29 -57 57 -63 63 -5 5 -25 23 -42 39 -18 16 -33 36 -33 45 0 9
-7 16 -16 16 -9 0 -24 9 -33 19 -16 18 -35 20 -253 23 -231 3 -237 4 -256 26
-11 12 -25 22 -31 22 -12 0 -61 44 -61 55 0 3 27 5 60 5 33 0 60 -4 60 -10 0
-5 24 -10 54 -10 34 0 57 -5 60 -12 5 -10 7 -10 12 0 3 6 12 12 21 12 21 0 43
25 43 49 0 21 2 21 400 21 l400 0 0 430 c0 275 -4 430 -10 430 -9 0 -178 162
-385 370 -58 58 -96 90 -105 90 -6 0 -31 20 -54 45 l-44 45 -803 0 c-550 -1
-808 -4 -815 -12z m1617 -80 c47 -51 36 -41 129 -128 91 -85 79 -74 139 -137
27 -29 57 -53 65 -53 14 0 43 -27 122 -112 12 -13 31 -30 43 -38 21 -14 21
-17 21 -392 l0 -378 -410 0 c-225 0 -410 -4 -410 -8 0 -4 9 -14 20 -22 11 -8
20 -22 20 -31 0 -10 6 -19 13 -22 6 -2 9 -8 4 -12 -10 -12 -201 -6 -205 6 -2
5 -21 9 -43 9 -21 0 -39 5 -39 10 0 6 -7 10 -15 10 -8 0 -15 5 -15 10 0 6 -9
10 -20 10 -16 0 -20 -7 -20 -33 0 -21 7 -38 20 -47 11 -8 20 -22 20 -31 0 -24
50 -74 83 -83 15 -3 27 -11 27 -16 0 -6 9 -10 20 -10 11 0 20 -4 20 -10 0 -5
9 -10 20 -10 11 0 20 -4 20 -10 0 -6 73 -10 200 -10 l201 0 34 -32 c33 -31
264 -253 337 -325 18 -17 44 -45 58 -62 14 -17 33 -33 43 -36 16 -6 17 -49 17
-708 0 -691 0 -703 -20 -717 -11 -8 -20 -22 -20 -32 0 -11 -7 -18 -19 -18 -11
0 -22 -8 -25 -18 -3 -10 -16 -24 -27 -32 -17 -12 -131 -117 -171 -158 -117
-119 -206 -202 -218 -202 -5 0 -10 -8 -10 -19 0 -13 -10 -20 -31 -25 -17 -3
-373 -6 -790 -6 l-758 0 -71 70 c-39 38 -78 70 -85 70 -8 0 -15 7 -15 16 0 18
-23 44 -40 44 -10 0 -47 32 -113 98 -61 61 -97 97 -162 160 l-65 62 0 324 c0
179 3 331 6 340 5 14 51 16 405 16 259 0 399 4 399 10 0 6 -7 10 -15 10 -10 0
-15 10 -15 30 0 20 5 30 15 30 8 0 15 4 15 9 0 4 30 11 67 14 37 3 69 10 71
16 2 6 8 11 13 11 16 0 59 48 59 65 0 8 5 15 10 15 6 0 0 11 -14 25 -26 26
-46 32 -46 15 0 -5 -9 -10 -19 -10 -11 0 -21 -5 -23 -11 -2 -6 -34 -13 -71
-16 -37 -3 -67 -10 -67 -14 0 -5 -11 -9 -25 -9 -20 0 -25 5 -25 25 0 14 5 25
10 25 6 0 10 9 10 20 0 11 5 20 10 20 6 0 10 5 10 10 0 6 -57 10 -150 10 -164
0 -152 -4 -223 68 -12 12 -41 41 -65 65 -119 119 -151 150 -158 158 -19 18
-154 145 -169 157 -13 11 -15 97 -15 752 0 406 3 745 6 754 3 9 15 16 25 16
10 0 19 7 19 15 0 8 7 15 15 15 14 0 137 116 352 332 69 69 103 98 116 98 7 0
19 9 27 20 14 20 26 20 768 20 l754 0 39 -42z"/>
<path d="M4864 7318 c-7 -5 -23 -21 -37 -34 -15 -13 -31 -24 -37 -24 -9 0 -54
-39 -112 -98 -9 -9 -56 -55 -160 -159 -24 -24 -53 -53 -65 -65 -12 -13 -40
-39 -62 -58 l-40 -35 0 -700 0 -700 40 -35 c71 -62 149 -146 149 -160 0 -5 7
-10 16 -10 8 0 38 -24 65 -52 27 -29 53 -56 57 -60 4 -4 33 -32 64 -63 l58
-55 215 0 c137 0 215 4 215 10 0 6 7 10 15 10 8 0 15 5 15 10 0 6 9 10 20 10
13 0 20 7 20 20 0 11 5 20 10 20 6 0 10 16 10 35 l0 35 -55 0 c-30 0 -55 5
-55 10 0 6 -22 10 -50 10 -27 0 -50 -4 -50 -10 0 -5 -9 -10 -20 -10 -28 0 -27
50 1 70 12 8 32 25 45 38 13 12 30 22 39 22 8 0 15 5 15 10 0 6 9 10 20 10 11
0 20 5 20 10 0 6 6 10 13 10 7 0 19 9 27 20 8 11 22 20 32 20 9 0 39 22 67 49
39 38 51 57 51 80 0 28 -3 31 -30 31 -16 0 -30 -4 -30 -10 0 -5 -22 -12 -50
-16 -27 -4 -50 -10 -50 -15 0 -5 -11 -9 -25 -9 -14 0 -25 5 -25 10 0 6 -14 10
-30 10 l-31 0 35 35 c20 19 42 35 51 35 8 0 15 5 15 10 0 6 7 10 15 10 8 0 15
5 15 10 0 6 7 10 16 10 8 0 21 6 28 13 8 6 23 19 35 27 11 8 21 22 21 32 0 10
5 18 10 18 6 0 10 9 10 20 0 16 -7 20 -30 20 -16 0 -30 -4 -30 -10 0 -5 -9
-10 -20 -10 -11 0 -20 -4 -20 -10 0 -5 -16 -10 -35 -10 -19 0 -35 -4 -35 -10
0 -5 -25 -10 -56 -10 -51 0 -59 -3 -90 -35 -47 -49 -64 -46 -64 10 0 25 5 45
10 45 6 0 10 16 10 35 0 19 5 35 10 35 6 0 10 13 10 30 0 20 10 39 34 62 53
50 64 58 81 58 8 0 15 5 15 10 0 6 9 10 20 10 11 0 20 5 20 10 0 6 5 10 10 10
6 0 26 15 45 33 18 17 47 43 64 57 17 14 31 33 31 43 0 9 5 17 10 17 15 0 12
40 -5 56 -13 14 -17 14 -31 0 -8 -9 -24 -16 -35 -16 -10 0 -19 -4 -19 -10 0
-5 -16 -10 -35 -10 -19 0 -35 -4 -35 -10 0 -5 -13 -10 -30 -10 -16 0 -30 5
-30 10 0 6 -13 10 -30 10 -16 0 -30 -4 -30 -10 0 -5 -16 -10 -35 -10 -24 0
-35 5 -35 15 0 17 74 95 91 95 6 0 23 13 38 29 15 16 40 31 57 35 17 4 36 16
44 26 8 11 22 20 32 20 10 0 18 5 18 10 0 6 9 10 20 10 11 0 20 5 20 10 0 6 9
10 20 10 11 0 20 5 20 10 0 6 7 10 15 10 17 0 55 35 55 51 0 20 -29 39 -59 39
-17 0 -31 -4 -31 -10 0 -6 -27 -10 -60 -10 l-60 0 0 30 c0 21 5 30 16 30 8 0
22 7 30 15 9 8 29 15 45 15 16 0 29 5 29 10 0 6 7 10 16 10 25 0 44 26 44 59
0 30 -1 31 -50 31 -38 0 -50 4 -50 15 0 19 44 65 62 65 8 0 20 9 28 20 8 11
22 20 31 20 31 0 49 12 49 31 0 16 -8 19 -45 19 -34 0 -45 4 -45 16 0 15 23
44 35 44 6 0 16 8 66 53 l31 27 -31 29 c-39 36 -39 51 -1 51 23 0 30 4 30 20
0 11 5 20 10 20 6 0 10 18 10 40 0 22 5 40 10 40 6 0 10 7 10 15 0 8 5 15 10
15 6 0 10 -11 10 -25 0 -14 5 -25 10 -25 6 0 10 -12 10 -26 0 -26 20 -54 39
-54 16 0 13 -19 -4 -36 -8 -9 -15 -24 -15 -35 0 -10 7 -19 15 -19 8 0 15 -4
15 -10 0 -5 9 -10 20 -10 13 0 20 -7 20 -19 0 -11 -9 -23 -20 -26 -28 -9 -26
-50 5 -80 13 -14 29 -25 35 -25 18 0 40 -27 40 -49 0 -14 -6 -21 -20 -21 -16
0 -20 -7 -20 -30 0 -20 5 -30 15 -30 16 0 28 -8 70 -48 28 -25 33 -62 10 -62
-8 0 -15 5 -15 10 0 15 -29 12 -46 -4 -8 -8 -14 -22 -14 -31 0 -23 45 -65 70
-65 11 0 20 -4 20 -10 0 -5 9 -10 20 -10 11 0 20 -4 20 -10 0 -5 9 -10 20 -10
11 0 20 -4 20 -9 0 -5 9 -13 20 -16 26 -8 27 -45 1 -45 -11 0 -22 -6 -25 -12
-5 -10 -7 -10 -12 0 -8 18 -121 16 -140 -3 -24 -23 21 -62 82 -71 28 -4 56
-15 65 -25 9 -11 23 -19 30 -19 8 0 21 -9 29 -20 14 -19 26 -20 437 -20 l423
0 0 335 0 334 -25 23 c-40 38 -54 48 -65 48 -10 0 -195 178 -347 332 -17 18
-39 39 -47 46 -20 16 -1475 17 -1492 0z"/>
<path d="M6140 5730 c0 -16 5 -30 10 -30 6 0 10 -16 10 -35 0 -19 5 -35 10
-35 6 0 10 -13 10 -30 0 -28 -2 -30 -40 -30 -22 0 -40 5 -40 10 0 6 -9 10 -20
10 -11 0 -20 5 -20 10 0 6 -11 10 -25 10 -14 0 -25 4 -25 9 0 5 -27 12 -60 16
-33 4 -60 11 -60 16 0 15 -60 10 -76 -6 -9 -8 -11 -15 -5 -15 6 0 11 -7 11
-15 0 -9 5 -22 11 -29 54 -64 66 -73 110 -80 27 -4 51 -14 59 -26 8 -11 18
-20 23 -20 14 0 57 -48 57 -65 0 -13 -17 -15 -105 -15 -63 0 -105 4 -105 10 0
6 -11 10 -24 10 -13 0 -26 6 -28 12 -3 9 -10 7 -24 -6 -13 -14 -15 -21 -6 -24
6 -2 12 -8 12 -13 0 -12 46 -59 57 -59 5 0 15 -9 23 -20 8 -11 20 -20 28 -20
7 0 20 -7 28 -15 9 -8 24 -15 35 -15 10 0 19 -4 19 -10 0 -5 9 -10 20 -10 11
0 20 -4 20 -10 0 -5 5 -10 10 -10 14 0 80 -66 80 -80 0 -5 5 -10 10 -10 6 0
10 -9 10 -20 0 -11 5 -20 10 -20 6 0 10 -20 10 -45 0 -47 -9 -55 -34 -30 -9 9
-34 15 -65 15 -28 0 -51 5 -51 10 0 6 -13 10 -28 10 -16 0 -34 8 -42 20 -8 11
-22 20 -32 20 -14 0 -18 -8 -18 -41 0 -42 17 -69 44 -69 9 0 16 -4 16 -10 0
-5 14 -10 30 -10 17 0 30 -4 30 -10 0 -5 7 -10 15 -10 8 0 15 -4 15 -10 0 -5
9 -10 20 -10 11 0 20 -4 20 -10 0 -5 7 -10 16 -10 17 0 44 -23 44 -37 0 -5 9
-15 20 -23 12 -8 20 -26 20 -42 0 -27 -2 -28 -50 -28 -27 0 -50 5 -50 10 0 6
-11 10 -25 10 -14 0 -25 5 -25 10 0 6 -13 10 -30 10 -16 0 -30 5 -30 10 0 6
-18 10 -40 10 -38 0 -40 -2 -40 -30 0 -33 57 -100 85 -100 8 0 15 -4 15 -10 0
-5 16 -10 35 -10 19 0 35 -4 35 -10 0 -5 12 -10 26 -10 14 0 32 -6 40 -14 7
-8 19 -17 26 -20 10 -5 10 -7 1 -12 -7 -3 -13 -13 -13 -23 0 -9 -9 -23 -20
-31 -11 -8 -20 -23 -20 -33 0 -22 23 -47 42 -47 8 0 20 -9 28 -20 8 -11 21
-20 29 -20 17 0 51 -38 51 -57 0 -7 5 -13 10 -13 6 0 10 -13 10 -30 0 -16 5
-30 10 -30 6 0 10 -13 10 -30 0 -16 5 -30 10 -30 6 0 10 -20 10 -45 0 -43 -1
-45 -30 -45 -16 0 -30 5 -30 10 0 6 -6 10 -13 10 -7 0 -19 9 -27 20 -8 11 -20
20 -28 20 -7 0 -20 7 -28 15 -9 8 -24 15 -35 15 -10 0 -19 5 -19 10 0 6 -9 10
-20 10 -11 0 -20 5 -20 10 0 6 -11 10 -25 10 -14 0 -25 5 -25 10 0 6 -18 10
-40 10 -22 0 -40 -4 -40 -10 0 -5 -20 -10 -45 -10 -25 0 -45 5 -45 10 0 6 -9
10 -20 10 -11 0 -20 5 -20 10 0 6 -9 10 -20 10 -11 0 -20 5 -20 10 0 6 -9 10
-20 10 -13 0 -20 -7 -20 -20 0 -11 -4 -20 -10 -20 -6 0 -10 -65 -10 -175 0
-110 4 -175 10 -175 6 0 10 -25 10 -55 0 -30 5 -55 10 -55 6 0 10 -13 10 -28
0 -16 8 -34 20 -42 11 -8 20 -22 20 -32 0 -11 7 -18 19 -18 11 0 26 -7 35 -15
8 -8 18 -15 23 -15 5 0 15 -9 23 -20 8 -11 20 -20 28 -20 18 0 42 -25 42 -45
0 -9 12 -18 30 -21 17 -4 30 -10 30 -15 0 -5 7 -9 15 -9 8 0 15 -4 15 -10 0
-5 9 -10 20 -10 11 0 20 -4 20 -10 0 -5 23 -10 50 -10 28 0 50 -4 50 -10 0 -6
30 -10 70 -10 69 0 71 1 115 43 53 50 72 67 80 67 7 0 92 81 210 200 17 17 65
64 108 104 l77 74 0 686 c0 606 -2 687 -15 698 -19 16 -152 140 -180 168 -55
56 -110 110 -160 158 -30 29 -55 57 -55 62 0 6 -57 10 -145 10 l-145 0 0 -30z"/>
<path d="M4350 4270 c0 -189 4 -300 10 -300 5 0 34 -25 64 -56 70 -72 66 -69
98 -99 15 -14 32 -25 38 -25 6 0 60 -48 120 -107 60 -60 125 -123 145 -140
l34 -33 134 0 c121 0 134 2 147 20 8 11 20 20 28 20 7 0 19 6 26 13 8 6 23 19
35 27 11 8 21 22 21 31 0 10 7 24 15 33 8 8 15 22 15 30 0 9 4 16 9 16 17 0
161 147 161 164 0 9 5 16 10 16 6 0 10 28 10 65 0 37 4 65 10 65 6 0 10 85 10
235 0 231 0 235 -21 235 -11 0 -38 -18 -59 -40 -25 -26 -47 -40 -64 -40 -14 0
-26 -4 -26 -10 0 -6 -32 -10 -75 -10 -41 0 -75 -4 -75 -9 0 -5 -18 -12 -40
-16 -22 -4 -40 -11 -40 -16 0 -5 -7 -9 -15 -9 -8 0 -15 -4 -15 -10 0 -5 -8
-10 -18 -10 -10 0 -24 -9 -32 -20 -8 -11 -20 -20 -28 -20 -7 0 -24 -12 -39
-26 -14 -14 -32 -23 -40 -20 -8 3 -17 6 -19 6 -2 0 -4 18 -4 40 0 22 5 40 10
40 6 0 10 11 10 25 0 14 5 25 10 25 6 0 10 14 10 30 0 17 5 30 10 30 6 0 10 8
10 18 0 10 10 24 21 32 12 8 27 21 35 28 7 6 19 12 26 12 8 0 20 9 28 20 8 11
20 20 27 20 7 0 13 5 13 10 0 6 -130 10 -370 10 l-370 0 0 -300z"/>
<path d="M9390 6728 c-21 -90 -96 -287 -188 -496 l-89 -200 92 -105 93 -106
192 376 c106 206 188 378 184 383 -5 4 -63 47 -129 95 -66 48 -125 92 -131 97
-8 6 -16 -7 -24 -44z"/>
<path d="M9070 3597 c-52 -22 -228 -95 -390 -161 l-295 -121 -26 -140 c-15
-77 -26 -141 -24 -143 1 -2 81 22 176 52 96 30 291 89 434 131 143 42 267 78
276 81 14 4 12 23 -18 167 -18 89 -35 165 -36 169 -1 3 -45 -12 -97 -35z"/>
<path d="M3110 2576 c0 -2 29 -100 64 -218 35 -117 87 -298 116 -403 29 -104
54 -192 56 -194 3 -3 60 7 280 50 l52 10 -34 79 c-32 78 -144 372 -219 578
l-37 102 -139 0 c-76 0 -139 -2 -139 -4z"/>
<path d="M6005 1794 c-71 -47 -131 -88 -132 -92 -3 -7 58 -40 438 -236 l226
-116 96 107 95 107 -146 72 c-81 40 -212 111 -291 158 -78 47 -146 86 -150 85
-3 0 -64 -38 -136 -85z"/>
</g>
</svg>
